<svg xmlns="http://www.w3.org/2000/svg" viewBox="0 0 400 520" fill="none">
  <!-- FloraClin — Front Face — Feminine, elegant line art -->

  <!-- Face contour — soft, feminine jawline -->
  <path d="M200 32
    C158 32, 118 58, 92 100
    C72 135, 62 172, 58 210
    C54 252, 58 292, 70 328
    C82 358, 102 384, 126 405
    C148 424, 170 440, 186 452
    C194 458, 198 460, 200 462
    C202 460, 206 458, 214 452
    C230 440, 252 424, 274 405
    C298 384, 318 358, 330 328
    C342 292, 346 252, 342 210
    C338 172, 328 135, 308 100
    C282 58, 242 32, 200 32 Z"
    stroke="#9aaa9e" stroke-width="1.4" stroke-linejoin="round"/>

  <!-- Hair — flowing, parted -->
  <path d="M88 105
    C78 85, 90 55, 120 40
    C145 28, 170 24, 200 22
    C230 24, 255 28, 280 40
    C310 55, 322 85, 312 105"
    stroke="#9aaa9e" stroke-width="1.2" opacity="0.7"/>
  <!-- Hair strands left -->
  <path d="M88 105 C75 130, 62 165, 55 200" stroke="#b0c0b5" stroke-width="0.8" opacity="0.4"/>
  <path d="M82 95 C68 120, 56 155, 50 192" stroke="#b0c0b5" stroke-width="0.6" opacity="0.3"/>
  <!-- Hair strands right -->
  <path d="M312 105 C325 130, 338 165, 345 200" stroke="#b0c0b5" stroke-width="0.8" opacity="0.4"/>
  <path d="M318 95 C332 120, 344 155, 350 192" stroke="#b0c0b5" stroke-width="0.6" opacity="0.3"/>

  <!-- ─── EYEBROWS — elegant, arched ─── -->
  <!-- Left brow -->
  <path d="M118 158
    C126 146, 138 140, 152 138
    C162 138, 172 142, 180 150"
    stroke="#8a9a8e" stroke-width="1.6" stroke-linecap="round"/>

  <!-- Right brow -->
  <path d="M220 150
    C228 142, 238 138, 248 138
    C262 140, 274 146, 282 158"
    stroke="#8a9a8e" stroke-width="1.6" stroke-linecap="round"/>

  <!-- ─── EYES — almond shaped, feminine ─── -->
  <!-- Left eye upper lid -->
  <path d="M124 178
    C130 166, 140 160, 152 160
    C164 160, 174 166, 180 178"
    stroke="#8a9a8e" stroke-width="1.2" stroke-linecap="round"/>
  <!-- Left eye lower lid -->
  <path d="M124 178
    C130 186, 140 190, 152 190
    C164 190, 174 186, 180 178"
    stroke="#8a9a8e" stroke-width="0.9" stroke-linecap="round"/>
  <!-- Left iris -->
  <circle cx="152" cy="178" r="10" stroke="#8a9a8e" stroke-width="0.8"/>
  <circle cx="152" cy="178" r="4.5" fill="#9aaa9e" opacity="0.25"/>
  <!-- Left upper lid crease -->
  <path d="M127 168 C136 158, 148 154, 158 155 C168 157, 177 162, 182 168"
    stroke="#b0c0b5" stroke-width="0.5" opacity="0.5"/>
  <!-- Left lower lash line -->
  <path d="M128 183 C138 190, 150 193, 162 191 C172 189, 178 184, 180 180"
    stroke="#b0c0b5" stroke-width="0.4" opacity="0.35"/>

  <!-- Right eye upper lid -->
  <path d="M220 178
    C226 166, 236 160, 248 160
    C260 160, 270 166, 276 178"
    stroke="#8a9a8e" stroke-width="1.2" stroke-linecap="round"/>
  <!-- Right eye lower lid -->
  <path d="M220 178
    C226 186, 236 190, 248 190
    C260 190, 270 186, 276 178"
    stroke="#8a9a8e" stroke-width="0.9" stroke-linecap="round"/>
  <!-- Right iris -->
  <circle cx="248" cy="178" r="10" stroke="#8a9a8e" stroke-width="0.8"/>
  <circle cx="248" cy="178" r="4.5" fill="#9aaa9e" opacity="0.25"/>
  <!-- Right upper lid crease -->
  <path d="M218 168 C223 162, 232 157, 242 155 C252 154, 264 158, 273 168"
    stroke="#b0c0b5" stroke-width="0.5" opacity="0.5"/>
  <!-- Right lower lash line -->
  <path d="M220 180 C222 184, 228 189, 238 191 C250 193, 262 190, 272 183"
    stroke="#b0c0b5" stroke-width="0.4" opacity="0.35"/>

  <!-- Eyelashes hint (tiny flicks) -->
  <path d="M122 176 L118 173" stroke="#9aaa9e" stroke-width="0.6" opacity="0.4"/>
  <path d="M182 176 L186 173" stroke="#9aaa9e" stroke-width="0.6" opacity="0.4"/>
  <path d="M218 176 L214 173" stroke="#9aaa9e" stroke-width="0.6" opacity="0.4"/>
  <path d="M278 176 L282 173" stroke="#9aaa9e" stroke-width="0.6" opacity="0.4"/>

  <!-- ─── NOSE — delicate, feminine ─── -->
  <!-- Bridge (very subtle) -->
  <path d="M194 165 C192 185, 190 210, 188 230"
    stroke="#b0c0b5" stroke-width="0.6" opacity="0.5"/>
  <path d="M206 165 C208 185, 210 210, 212 230"
    stroke="#b0c0b5" stroke-width="0.6" opacity="0.5"/>

  <!-- Nose tip -->
  <path d="M188 230
    C184 238, 182 245, 184 250
    C186 255, 192 260, 200 260
    C208 260, 214 255, 216 250
    C218 245, 216 238, 212 230"
    stroke="#9aaa9e" stroke-width="1"/>

  <!-- Nostrils -->
  <path d="M184 250 C178 248, 174 244, 176 240" stroke="#b0c0b5" stroke-width="0.6" opacity="0.6"/>
  <path d="M216 250 C222 248, 226 244, 224 240" stroke="#b0c0b5" stroke-width="0.6" opacity="0.6"/>

  <!-- ─── NASOLABIAL FOLDS (very subtle) ─── -->
  <path d="M168 255 C164 278, 162 305, 162 325" stroke="#c0ccb5" stroke-width="0.5" opacity="0.3"/>
  <path d="M232 255 C236 278, 238 305, 238 325" stroke="#c0ccb5" stroke-width="0.5" opacity="0.3"/>

  <!-- ─── LIPS — full, feminine ─── -->
  <!-- Upper lip — cupid's bow -->
  <path d="M160 322
    C168 316, 178 312, 188 314
    C192 315, 196 310, 198 306
    L200 303
    L202 306
    C204 310, 208 315, 212 314
    C222 312, 232 316, 240 322"
    stroke="#9aaa9e" stroke-width="1.2" stroke-linecap="round"/>

  <!-- Lower lip -->
  <path d="M160 322
    C164 334, 174 344, 188 350
    C194 352, 198 353, 200 353
    C202 353, 206 352, 212 350
    C226 344, 236 334, 240 322"
    stroke="#9aaa9e" stroke-width="1.2" stroke-linecap="round"/>

  <!-- Lip center line -->
  <path d="M164 322 C175 320, 190 318, 200 318 C210 318, 225 320, 236 322"
    stroke="#b0c0b5" stroke-width="0.5" opacity="0.4"/>

  <!-- Lower lip shadow -->
  <path d="M175 340 C185 346, 195 348, 200 348 C205 348, 215 346, 225 340"
    stroke="#c0ccb5" stroke-width="0.4" opacity="0.3"/>

  <!-- ─── CHIN ─── -->
  <path d="M178 375 C188 380, 196 382, 200 382 C204 382, 212 380, 222 375"
    stroke="#c0ccb5" stroke-width="0.5" opacity="0.3"/>

  <!-- ─── EARS (simplified, elegant) ─── -->
  <!-- Left -->
  <path d="M60 168
    C52 172, 44 185, 42 200
    C40 218, 44 232, 50 240
    C54 246, 58 244, 58 238"
    stroke="#9aaa9e" stroke-width="0.9" opacity="0.7"/>

  <!-- Right -->
  <path d="M340 168
    C348 172, 356 185, 358 200
    C360 218, 356 232, 350 240
    C346 246, 342 244, 342 238"
    stroke="#9aaa9e" stroke-width="0.9" opacity="0.7"/>

  <!-- ─── NECK ─── -->
  <path d="M155 455 C158 472, 162 488, 165 500" stroke="#b0c0b5" stroke-width="0.7" opacity="0.4"/>
  <path d="M245 455 C242 472, 238 488, 235 500" stroke="#b0c0b5" stroke-width="0.7" opacity="0.4"/>
  <!-- Neck center lines -->
  <path d="M190 462 L188 500" stroke="#c0ccb5" stroke-width="0.4" opacity="0.2"/>
  <path d="M210 462 L212 500" stroke="#c0ccb5" stroke-width="0.4" opacity="0.2"/>

  <!-- ─── SUBTLE REFERENCE LINES ─── -->
  <line x1="200" y1="22" x2="200" y2="462" stroke="#c0ccb5" stroke-width="0.3" opacity="0.08" stroke-dasharray="6,10"/>
</svg>
