<svg xmlns="http://www.w3.org/2000/svg" viewBox="0 0 400 500" fill="none" stroke="#d1d5db" stroke-width="1.5" stroke-linecap="round" stroke-linejoin="round">
  <!-- Face outline -->
  <path d="M200 30 C130 30, 70 80, 60 160 C50 230, 55 290, 80 340 C100 380, 140 430, 170 455 C185 467, 195 472, 200 475 C205 472, 215 467, 230 455 C260 430, 300 380, 320 340 C345 290, 350 230, 340 160 C330 80, 270 30, 200 30 Z" />

  <!-- Hairline -->
  <path d="M105 95 C130 55, 170 40, 200 38 C230 40, 270 55, 295 95" />

  <!-- Left eyebrow -->
  <path d="M120 155 C135 140, 155 138, 175 145" />

  <!-- Right eyebrow -->
  <path d="M225 145 C245 138, 265 140, 280 155" />

  <!-- Left eye -->
  <ellipse cx="150" cy="175" rx="22" ry="12" />
  <circle cx="150" cy="175" r="6" />

  <!-- Right eye -->
  <ellipse cx="250" cy="175" rx="22" ry="12" />
  <circle cx="250" cy="175" r="6" />

  <!-- Nose bridge -->
  <path d="M195 160 L190 230" />
  <path d="M205 160 L210 230" />

  <!-- Nose tip / nostrils -->
  <path d="M175 240 C180 250, 190 255, 200 255 C210 255, 220 250, 225 240" />
  <path d="M190 230 C182 240, 175 242, 175 240" />
  <path d="M210 230 C218 240, 225 242, 225 240" />

  <!-- Nasolabial folds -->
  <path d="M168 245 C165 270, 162 300, 165 320" opacity="0.5" />
  <path d="M232 245 C235 270, 238 300, 235 320" opacity="0.5" />

  <!-- Upper lip -->
  <path d="M160 310 C170 305, 185 300, 195 305 L200 300 L205 305 C215 300, 230 305, 240 310" />

  <!-- Lower lip -->
  <path d="M160 310 C170 325, 185 335, 200 337 C215 335, 230 325, 240 310" />

  <!-- Chin crease -->
  <path d="M180 370 C190 375, 210 375, 220 370" opacity="0.4" />

  <!-- Left ear -->
  <path d="M62 155 C50 160, 42 180, 45 200 C48 220, 55 230, 62 225" />

  <!-- Right ear -->
  <path d="M338 155 C350 160, 358 180, 355 200 C352 220, 345 230, 338 225" />

  <!-- Neck -->
  <path d="M155 460 C160 475, 170 490, 175 500" opacity="0.4" />
  <path d="M245 460 C240 475, 230 490, 225 500" opacity="0.4" />
</svg>
