<svg xmlns="http://www.w3.org/2000/svg" viewBox="0 0 400 500" fill="none" stroke="#d1d5db" stroke-width="1.5" stroke-linecap="round" stroke-linejoin="round">
  <!-- Head/face outline - left profile (facing left) -->
  <path d="M280 60 C240 30, 180 25, 150 40 C120 55, 100 80, 95 110 C88 145, 85 160, 85 180 C85 200, 90 220, 95 235 C98 245, 100 255, 95 265 C88 280, 80 285, 82 290 C84 295, 95 290, 100 295 C105 300, 90 310, 95 315 C100 318, 108 312, 112 315 C115 320, 118 330, 130 340 C145 355, 155 365, 160 370 C170 385, 175 400, 175 420 C175 440, 170 460, 168 480 L168 500" />

  <!-- Back of head -->
  <path d="M280 60 C310 80, 330 120, 335 170 C340 220, 335 270, 320 320 C310 355, 295 390, 280 420 C270 445, 265 470, 262 500" />

  <!-- Ear -->
  <path d="M295 155 C310 160, 320 180, 318 200 C316 220, 308 230, 295 225" />

  <!-- Hairline -->
  <path d="M150 40 C160 45, 200 35, 250 45 C270 50, 285 58, 290 70" />

  <!-- Eyebrow -->
  <path d="M110 155 C125 140, 145 138, 165 145" />

  <!-- Eye -->
  <path d="M120 170 C130 162, 150 162, 160 170 C150 178, 130 178, 120 170 Z" />
  <circle cx="142" cy="170" r="5" />

  <!-- Nose -->
  <path d="M110 160 L95 235" />
  <path d="M95 235 C88 250, 80 258, 82 262 C84 266, 95 260, 100 265 C105 270, 100 275, 95 280 C88 285, 82 288, 82 290" />

  <!-- Lips -->
  <path d="M100 310 C110 300, 125 298, 135 305 L138 302 C145 305, 155 310, 160 315" />
  <path d="M100 310 C110 320, 130 328, 145 325 C155 322, 160 318, 160 315" />

  <!-- Chin -->
  <path d="M160 315 C165 330, 170 345, 170 360 C170 375, 175 395, 175 420" />

  <!-- Jawline -->
  <path d="M100 310 C105 320, 112 325, 125 335 C140 345, 155 358, 160 370" />

  <!-- Nasolabial fold -->
  <path d="M100 275 C105 290, 105 300, 103 310" opacity="0.5" />

  <!-- Neck back -->
  <path d="M280 420 C275 445, 270 470, 262 500" opacity="0.4" />

  <!-- Neck front -->
  <path d="M175 420 C175 445, 172 470, 168 500" opacity="0.4" />
</svg>
