<svg xmlns="http://www.w3.org/2000/svg" viewBox="0 0 400 520" fill="none">
  <!-- FloraClin — Right Profile — Mirror of left profile -->

  <!-- Hair silhouette -->
  <path d="M160 30
    C200 22, 240 28, 270 50
    C300 72, 318 100, 325 135
    C332 170, 332 200, 328 225
    C335 240, 342 260, 345 280"
    stroke="#b0c0b5" stroke-width="0.8" opacity="0.4"/>
  <path d="M160 30
    C135 35, 115 48, 105 72
    C95 95, 92 120, 95 145"
    stroke="#b0c0b5" stroke-width="0.8" opacity="0.4"/>

  <!-- Face profile contour -->
  <path d="M160 35
    C185 32, 225 40, 255 65
    C280 88, 295 115, 302 145
    C308 170, 310 195, 305 218
    C312 222, 320 228, 322 235
    C324 242, 322 252, 318 256
    C314 260, 308 255, 305 250
    C302 248, 300 252, 300 260
    C300 268, 305 274, 310 278
    C314 282, 316 288, 312 292
    C308 295, 302 293, 298 290
    C296 288, 295 286, 292 288
    C288 292, 280 302, 274 310
    C268 320, 265 324, 266 330
    C267 336, 272 342, 276 348
    C280 354, 282 362, 275 370
    C268 378, 255 395, 242 412
    C232 425, 222 438, 212 450
    C205 458, 200 462, 195 464"
    stroke="#9aaa9e" stroke-width="1.4" stroke-linecap="round" stroke-linejoin="round"/>

  <!-- Back of head / neck contour -->
  <path d="M160 35
    C130 38, 105 55, 90 85
    C75 115, 70 150, 72 185
    C74 220, 82 255, 95 285
    C105 310, 115 330, 122 350
    C128 370, 132 388, 132 405
    C132 425, 135 445, 140 465
    C142 480, 148 492, 155 500"
    stroke="#9aaa9e" stroke-width="1.2" opacity="0.6"/>

  <!-- ─── EYEBROW ─── -->
  <path d="M282 152
    C272 140, 258 135, 242 136
    C228 138, 218 144, 212 152"
    stroke="#8a9a8e" stroke-width="1.6" stroke-linecap="round"/>

  <!-- ─── EYE — profile view ─── -->
  <path d="M268 178
    C262 168, 252 163, 240 164
    C230 165, 222 170, 218 178"
    stroke="#8a9a8e" stroke-width="1.2" stroke-linecap="round"/>
  <path d="M268 178
    C264 184, 256 188, 245 189
    C234 189, 225 186, 218 178"
    stroke="#8a9a8e" stroke-width="0.9" stroke-linecap="round"/>
  <path d="M248 168 C242 168, 236 172, 235 178 C236 184, 242 188, 248 188"
    stroke="#8a9a8e" stroke-width="0.7"/>
  <path d="M245 172 C242 172, 239 175, 239 178 C239 181, 242 184, 245 184"
    fill="#9aaa9e" opacity="0.2"/>
  <path d="M265 170 C258 160, 245 156, 232 158 C222 160, 215 166, 212 172"
    stroke="#b0c0b5" stroke-width="0.5" opacity="0.45"/>
  <path d="M270 176 L274 173" stroke="#9aaa9e" stroke-width="0.5" opacity="0.4"/>

  <!-- ─── NOSE — nostril detail ─── -->
  <path d="M305 250 C308 255, 310 260, 305 262 C300 264, 296 260, 295 256"
    stroke="#9aaa9e" stroke-width="0.7" opacity="0.6"/>

  <!-- ─── LIPS ─── -->
  <path d="M292 288
    C288 290, 282 296, 276 302
    C272 308, 270 312, 268 316"
    stroke="#9aaa9e" stroke-width="1.1" stroke-linecap="round"/>
  <path d="M268 316
    C266 322, 264 328, 266 332
    C268 336, 272 340, 276 342"
    stroke="#9aaa9e" stroke-width="1.1" stroke-linecap="round"/>
  <path d="M292 290 C285 295, 275 304, 266 316"
    stroke="#b0c0b5" stroke-width="0.5" opacity="0.4"/>

  <!-- ─── CHIN ─── -->
  <path d="M276 348 C272 356, 268 365, 265 372"
    stroke="#b0c0b5" stroke-width="0.5" opacity="0.4"/>

  <!-- ─── EAR ─── -->
  <path d="M135 155
    C122 158, 110 170, 106 185
    C102 200, 104 218, 110 230
    C114 240, 120 245, 124 240
    C128 235, 126 225, 124 218"
    stroke="#9aaa9e" stroke-width="1" opacity="0.8"/>
  <path d="M124 218 C126 212, 130 208, 128 200 C126 192, 122 188, 120 190"
    stroke="#b0c0b5" stroke-width="0.6" opacity="0.5"/>

  <!-- ─── JAWLINE ─── -->
  <path d="M242 412 C228 402, 212 388, 200 375
    C182 355, 162 340, 142 330
    C125 322, 112 315, 102 305"
    stroke="#b0c0b5" stroke-width="0.6" opacity="0.35"/>

  <!-- ─── NECK ─── -->
  <path d="M195 464 C190 475, 185 488, 182 500" stroke="#b0c0b5" stroke-width="0.6" opacity="0.3"/>
  <path d="M155 500 C152 490, 148 478, 142 465" stroke="#b0c0b5" stroke-width="0.5" opacity="0.25"/>

  <!-- Forehead lines -->
  <path d="M285 115 C260 108, 230 105, 205 108" stroke="#c0ccb5" stroke-width="0.4" opacity="0.2"/>
  <path d="M288 128 C265 122, 235 120, 208 122" stroke="#c0ccb5" stroke-width="0.4" opacity="0.15"/>

  <!-- Cheekbone -->
  <path d="M290 225 C275 232, 255 238, 240 240" stroke="#c0ccb5" stroke-width="0.4" opacity="0.2"/>
</svg>
