<svg xmlns="http://www.w3.org/2000/svg" viewBox="0 0 400 500" fill="none" stroke="#d1d5db" stroke-width="1.5" stroke-linecap="round" stroke-linejoin="round">
  <!-- Head/face outline - right profile (facing right, mirror of left) -->
  <path d="M120 60 C160 30, 220 25, 250 40 C280 55, 300 80, 305 110 C312 145, 315 160, 315 180 C315 200, 310 220, 305 235 C302 245, 300 255, 305 265 C312 280, 320 285, 318 290 C316 295, 305 290, 300 295 C295 300, 310 310, 305 315 C300 318, 292 312, 288 315 C285 320, 282 330, 270 340 C255 355, 245 365, 240 370 C230 385, 225 400, 225 420 C225 440, 230 460, 232 480 L232 500" />

  <!-- Back of head -->
  <path d="M120 60 C90 80, 70 120, 65 170 C60 220, 65 270, 80 320 C90 355, 105 390, 120 420 C130 445, 135 470, 138 500" />

  <!-- Ear -->
  <path d="M105 155 C90 160, 80 180, 82 200 C84 220, 92 230, 105 225" />

  <!-- Hairline -->
  <path d="M250 40 C240 45, 200 35, 150 45 C130 50, 115 58, 110 70" />

  <!-- Eyebrow -->
  <path d="M290 155 C275 140, 255 138, 235 145" />

  <!-- Eye -->
  <path d="M280 170 C270 162, 250 162, 240 170 C250 178, 270 178, 280 170 Z" />
  <circle cx="258" cy="170" r="5" />

  <!-- Nose -->
  <path d="M290 160 L305 235" />
  <path d="M305 235 C312 250, 320 258, 318 262 C316 266, 305 260, 300 265 C295 270, 300 275, 305 280 C312 285, 318 288, 318 290" />

  <!-- Lips -->
  <path d="M300 310 C290 300, 275 298, 265 305 L262 302 C255 305, 245 310, 240 315" />
  <path d="M300 310 C290 320, 270 328, 255 325 C245 322, 240 318, 240 315" />

  <!-- Chin -->
  <path d="M240 315 C235 330, 230 345, 230 360 C230 375, 225 395, 225 420" />

  <!-- Jawline -->
  <path d="M300 310 C295 320, 288 325, 275 335 C260 345, 245 358, 240 370" />

  <!-- Nasolabial fold -->
  <path d="M300 275 C295 290, 295 300, 297 310" opacity="0.5" />

  <!-- Neck back -->
  <path d="M120 420 C125 445, 130 470, 138 500" opacity="0.4" />

  <!-- Neck front -->
  <path d="M225 420 C225 445, 228 470, 232 500" opacity="0.4" />
</svg>
